<svg id="Layer_1" data-name="Layer 1" xmlns="http://www.w3.org/2000/svg" viewBox="0 0 113.02 186.8">
    <symbol id="ornament">
  <title>ornament</title>
  <g>
    <path d="M125,47.56a8.32,8.32,0,0,1,7.82,5.57l1.79-5.57L132,39.37H120.51l-5.13,6.22,1.64,8A8.33,8.33,0,0,1,125,47.56Z" transform="translate(-50.93 -39.37)" fill="none"/>
    <path d="M133.3,63v6.16a8.3,8.3,0,0,1-16.6,0V63a74.07,74.07,0,1,0,16.6,0ZM74.94,126.56c-3.1,27.42-1.63,43.18-2.55,43.21-1.06,0-5-21.39-1.1-46.47,2.41-15.52,7.24-28.83,8.09-28.63S77.16,107,74.94,126.56Z" transform="translate(-50.93 -39.37)" fill="#d35fa7"/>
    <path d="M133.3,63V55.86a8.21,8.21,0,0,0-.47-2.73L132,55.75l.85-2.62a8.28,8.28,0,0,0-15.81.5l.43,2.12L117,53.63a8.22,8.22,0,0,0-.32,2.23V63a72.79,72.79,0,0,1,16.6,0Z" transform="translate(-50.93 -39.37)" fill="#d35fa7"/>
    <path d="M125,77.44a8.32,8.32,0,0,0,8.3-8.3V63a72.79,72.79,0,0,0-16.6,0v6.16A8.32,8.32,0,0,0,125,77.44Z" transform="translate(-50.93 -39.37)" fill="#d35fa7"/>
    <path d="M79.38,94.66c-.85-.2-5.68,13.11-8.09,28.63-3.89,25.09,0,46.51,1.1,46.47.91,0-.55-15.8,2.55-43.21C77.16,107,80.18,94.85,79.38,94.66Z" transform="translate(-50.93 -39.37)" fill="#d35fa7" stroke="#f1f2f2" stroke-miterlimit="10" stroke-width="4"/>
  </g>
</symbol>

<symbol id="hat">
      <title>hat</title>
  <g>
    <path d="M85.63,170a15,15,0,0,1,21.27-.78,15,15,0,0,1,20.84.31A15,15,0,0,1,150.24,171a15,15,0,0,1,19.43-3.87,14.93,14.93,0,0,1,7.51-2c.45,0,.89,0,1.33.07L138.32,95.61,125,118.69a7.86,7.86,0,1,1-7.86,7.86,7.86,7.86,0,0,1,7.86-7.86L111.68,95.61,71.31,165.53A14.91,14.91,0,0,1,85.63,170Z" transform="translate(-58.59 -68.52)" fill="#fa0006" stroke="#ddd" stroke-miterlimit="10" stroke-width="2"/>
    <polygon points="79.73 27.09 53.09 27.09 66.41 50.17 79.73 27.09" fill="#e80006" stroke="#ddd" stroke-miterlimit="10" stroke-width="2"/>
    <circle cx="66.41" cy="58.02" r="7.86" fill="#fff" stroke="#ddd" stroke-miterlimit="10" stroke-width="2"/>
    <path d="M178.51,165.22c-.44,0-.88-.07-1.33-.07a14.93,14.93,0,0,0-7.51,2A15,15,0,0,0,150.24,171a15,15,0,0,0-22.51-1.53,15,15,0,0,0-20.84-.31,15,15,0,0,0-21.27.78,15,15,0,1,0,0,20.37,15,15,0,0,0,21.27.78,15,15,0,0,0,20.84-.31,15,15,0,0,0,22.51-1.53,15,15,0,0,0,19.43,3.87,15,15,0,1,0,8.85-28Z" transform="translate(-58.59 -68.52)" fill="#fff" stroke="#ddd" stroke-miterlimit="10" stroke-width="2"/>
    <polygon points="79.73 27.09 105.15 27.09 105.15 0 34.2 0 34.2 27.09 53.09 27.09 66.41 4.01 79.73 27.09" fill="#fff"/>
    <polygon points="66.41 4.01 53.09 27.09 79.73 27.09 66.41 4.01" fill="#fff"/>
  </g>
</symbol>

<symbol id="light">
      <title>Light</title>
  <g>
    <polygon points="38.87 136.34 32.2 136.34 15.06 136.34 11.3 136.34 11.3 219.8 59.77 219.8 59.77 136.34 56.01 136.34 38.87 136.34" fill="#004419"/>
    <path d="M121.67,134.33a3.33,3.33,0,1,1,6.67,0v11.42h17.14V59.93L128.67,33.57s-2.33,8.19-24.14,26.36v85.83h17.14Z" transform="translate(-89.46 -9.42)" fill="#2dcddf" opacity="0.5"/>
    <path d="M125,131a3.34,3.34,0,0,0-3.33,3.33v11.42h6.67V134.33A3.34,3.34,0,0,0,125,131Z" transform="translate(-89.46 -9.42)" fill="#2dcddf"/>
    <path d="M125,131a3.34,3.34,0,0,0-3.33,3.33v11.42h6.67V134.33A3.34,3.34,0,0,0,125,131Z" transform="translate(-89.46 -9.42)" fill="#2dcddf" opacity="0.5"/>
    <path d="M90.92,28.53a.88.88,0,1,0-1.15,1.34l9,7.68a.88.88,0,0,0,1.15-1.34Z" transform="translate(-89.46 -9.42)" fill="#2dcddf" opacity="0.66"/>
    <path d="M129.22,23a.89.89,0,0,0,.88-.88V10.3a.88.88,0,0,0-1.77,0V22.1A.89.89,0,0,0,129.22,23Z" transform="translate(-89.46 -9.42)" fill="#2dcddf" opacity="0.66"/>
    <path d="M163.54,29.65a.89.89,0,0,0-1.21-.32l-10.22,5.9a.88.88,0,1,0,.88,1.53l10.22-5.9A.89.89,0,0,0,163.54,29.65Z" transform="translate(-89.46 -9.42)" fill="#2dcddf" opacity="0.66"/>
  </g>
</symbol>

<symbol id="present">
     <title>present</title>
  <g>
    <path d="M120.41,69h9.17A11.79,11.79,0,0,1,125,59.67,11.79,11.79,0,0,1,120.41,69Z" transform="translate(-69 -47.84)" fill="none"/>
    <path d="M117.74,70.58A11.8,11.8,0,0,1,105.93,69H69v47.65h48.74Z" transform="translate(-69 -47.84)" fill="#c80075"/>
    <path d="M144.07,69a11.8,11.8,0,0,1-11.8,1.57v46.07H181V69Z" transform="translate(-69 -47.84)" fill="#c80075"/>
    <rect y="83.33" width="48.74" height="49.82" fill="#c80075"/>
    <rect x="63.26" y="83.33" width="48.74" height="49.82" fill="#c80075"/>
    <path d="M132.26,70.58A11.91,11.91,0,1,0,129.59,69h-9.17a11.68,11.68,0,1,0-2.68,1.57v46.07H69v14.52h48.74V181h14.52V131.17H181V116.65H132.26Zm-3.84-10.91a8.4,8.4,0,1,1,8.4,8.4A8.4,8.4,0,0,1,128.42,59.67Zm-23.65,0a8.4,8.4,0,1,1,8.4,8.4A8.4,8.4,0,0,1,104.77,59.67Z" transform="translate(-69 -47.84)" fill="#ccb405"/>
    <circle cx="44.17" cy="11.83" r="8.4" fill="#fff"/>
    <circle cx="67.82" cy="11.83" r="8.4" fill="#fff"/>
  </g>
</symbol>

<symbol id="star">
      <title>star</title>
  <g>
    <path d="M154.8,140.52l29.67-29.05-41.11-5.88L124.9,68.4l-18.29,37.28-41.08,6.06,29.8,28.92L88.4,181.6l36.71-19.41,36.8,19.24Zm-29.72,10.13L99.76,164l4.78-28.23L84,115.86l28.33-4.18L124.93,86l12.73,25.65L166,115.67l-20.46,20,4.9,28.21Z" transform="translate(-65.53 -68.4)" fill="#fff771"/>
    <path d="M166,115.67l-28.35-4.05L124.93,86l-12.62,25.71L84,115.86l20.55,19.94L99.76,164l25.32-13.38,25.38,13.27-4.9-28.21ZM125,141l-15.76,8.33,3-17.58L99.47,119.31l17.64-2.6,7.85-16,7.93,16,17.65,2.52-12.74,12.47,3.05,17.56Z" transform="translate(-65.53 -68.4)" fill="#f2e540"/>
    <polygon points="85 50.79 67.35 48.27 59.43 32.3 51.57 48.3 33.94 50.91 46.73 63.32 43.76 80.9 59.52 72.57 75.32 80.83 72.26 63.26 85 50.79" fill="#e2ce10"/>
    <polygon points="53.39 110.49 66.67 110.49 64.27 96.25 59.58 93.79 54.63 96.41 53.39 110.49" fill="#e2ce10"/>
  </g>

</symbol>


</svg>
